# xmcd
#
# Track frame offsets:
# 150
# 17248
# 31111
# 43749
# 58153
# 65241
# 74003
# 81089
# 91581
# 104172
# 116220
# 124582
# 134238
# 144424
# 160146
# 174632
# 189138
# 203460
# 217078
#
# Disc length: 3119 seconds
#
#
# Revision: 1
# Processed by: cddbd v1.5PL3 Copyright (c) Steve Scherf et al.
# Submitted via: FreeRIP 2.35 
#
DISCID=200c2d13
DTITLE=La Fiesta - Un Golazo
DYEAR=2002
DGENRE=
TTITLE0=De frente - El golpecito
TTITLE1=Me das cada día más
TTITLE2=Borracho y sigo parado
TTITLE3=Solo tú
TTITLE4=La moto - El upa
TTITLE5=El bailador
TTITLE6=De costadito
TTITLE7=Yo me enamoré
TTITLE8=Agachate - Meneate
TTITLE9=Obsesión
TTITLE10=Woman del Callao
TTITLE11=Se quiebra
TTITLE12=Sigue la fiesta - Suban el volumen
TTITLE13=Mal agradecida
TTITLE14=Y tu te vas
TTITLE15=Ya llego el calor
TTITLE16=La chelcha
TTITLE17=Al galope
TTITLE18=Quiero dormir cansado
EXTD=
EXTT0=
EXTT1=
EXTT2=
EXTT3=
EXTT4=
EXTT5=
EXTT6=
EXTT7=
EXTT8=
EXTT9=
EXTT10=
EXTT11=
EXTT12=
EXTT13=
EXTT14=
EXTT15=
EXTT16=
EXTT17=
EXTT18=
PLAYORDER=
